<?xml version="1.0" encoding="UTF-8"?>
<svg id="Capa_1" data-name="Capa 1" xmlns="http://www.w3.org/2000/svg" viewBox="0 0 244.49 83.55">
  <defs>
    <style>
      .cls-1 {
        fill: #4d4d4d;
      }

      .cls-1, .cls-2, .cls-3, .cls-4, .cls-5, .cls-6, .cls-7 {
        stroke-width: 0px;
      }

      .cls-2 {
        fill: #c466db;
      }

      .cls-3 {
        fill: #8d28e5;
      }

      .cls-4 {
        fill: #f7931e;
      }

      .cls-5 {
        fill: #00adce;
      }

      .cls-6 {
        fill: #a4ce5b;
      }

      .cls-7 {
        fill: #93278f;
      }
    </style>
  </defs>
  <g>
    <rect class="cls-4" x="18.27" y="6.15" width="14.36" height="5.74"/>
    <rect class="cls-6" x="46.98" y="6.15" width="14.36" height="5.74"/>
    <rect class="cls-4" x="101.64" y="71.65" width="14.36" height="5.74"/>
    <rect class="cls-3" x="75.69" y="6.15" width="14.36" height="5.74"/>
    <rect class="cls-6" x="72.92" y="71.65" width="14.36" height="5.74"/>
    <rect class="cls-2" x="5.12" y="47.57" width="5.74" height="14.36"/>
    <rect class="cls-7" x="219.27" y="6.15" width="14.36" height="5.74"/>
    <rect class="cls-7" x="5.12" y="18.85" width="5.74" height="14.36"/>
    <rect class="cls-5" x="15.49" y="71.65" width="14.36" height="5.74"/>
    <rect class="cls-3" x="44.21" y="71.65" width="14.36" height="5.74"/>
    <rect class="cls-5" x="104.41" y="6.15" width="14.36" height="5.74"/>
    <rect class="cls-3" x="216.49" y="71.65" width="14.36" height="5.74"/>
    <rect class="cls-5" x="187.78" y="71.65" width="14.36" height="5.74"/>
    <rect class="cls-4" x="233.62" y="16.99" width="5.74" height="14.36"/>
    <rect class="cls-6" x="233.62" y="45.71" width="5.74" height="14.36"/>
    <rect class="cls-3" x="190.55" y="6.15" width="14.36" height="5.74"/>
    <rect class="cls-7" x="130.35" y="71.65" width="14.36" height="5.74"/>
    <rect class="cls-4" x="161.84" y="6.15" width="14.36" height="5.74"/>
    <rect class="cls-2" x="133.12" y="6.15" width="14.36" height="5.74"/>
    <rect class="cls-2" x="159.06" y="71.65" width="14.36" height="5.74"/>
  </g>
  <g>
    <path class="cls-1" d="m40.95,25.74h13.1c3.56,0,6.63.64,9.2,1.92,2.57,1.28,4.54,3.13,5.91,5.55,1.37,2.42,2.05,5.29,2.05,8.61s-.68,6.23-2.03,8.65c-1.35,2.42-3.32,4.27-5.89,5.55-2.57,1.28-5.65,1.92-9.25,1.92h-13.1V25.74Zm12.51,25.43c3.17,0,5.52-.78,7.08-2.33,1.55-1.55,2.33-3.9,2.33-7.03s-.78-5.47-2.33-7.01c-1.55-1.54-3.91-2.31-7.08-2.31h-4.11v18.67h4.11Z"/>
    <path class="cls-1" d="m82.98,56.31c-2.42-1.35-4.28-3.27-5.59-5.75-1.31-2.48-1.96-5.39-1.96-8.74s.65-6.26,1.96-8.74c1.31-2.48,3.17-4.39,5.59-5.73,2.42-1.34,5.27-2.01,8.56-2.01s6.14.67,8.56,2.01c2.42,1.34,4.28,3.25,5.57,5.73,1.29,2.48,1.94,5.4,1.94,8.74s-.65,6.26-1.96,8.74c-1.31,2.48-3.17,4.4-5.59,5.75-2.42,1.35-5.26,2.03-8.52,2.03s-6.14-.68-8.56-2.03Zm14.27-6.99c1.37-1.72,2.05-4.22,2.05-7.51s-.69-5.78-2.08-7.49c-1.39-1.7-3.28-2.56-5.68-2.56s-4.34.84-5.71,2.53c-1.37,1.69-2.05,4.19-2.05,7.51s.69,5.83,2.05,7.53c1.37,1.71,3.27,2.56,5.71,2.56s4.34-.86,5.71-2.58Z"/>
    <path class="cls-1" d="m141.31,25.74v32.19h-6.21l-14.7-18.4v18.4h-7.81V25.74h6.12l14.75,18.4v-18.4h7.85Z"/>
    <path class="cls-1" d="m168.79,51.27h-14.25l-2.88,6.67h-8.45l15.02-32.19h6.67l15.07,32.19h-8.31l-2.88-6.67Zm-2.69-6.3l-4.43-10.32-4.43,10.32h8.86Z"/>
    <path class="cls-1" d="m210.85,57.93h-9.22l-5.57-10.27c-.7-1.19-1.81-1.78-3.33-1.78h-2.56v12.05h-8.26V25.74h15.34c3.9,0,6.83.84,8.79,2.53s2.95,4.13,2.95,7.33c0,2.44-.67,4.5-2.01,6.19-1.34,1.69-3.23,2.82-5.66,3.4,1.86.4,3.33,1.6,4.43,3.61l5.11,9.13Zm-10.94-19.22c.81-.58,1.21-1.52,1.21-2.83s-.4-2.31-1.21-2.9c-.81-.59-2.14-.89-4-.89h-5.84v7.49h5.84c1.86,0,3.19-.29,4-.87Z"/>
  </g>
</svg>